<mxfile host="app.diagrams.net" modified="2021-09-11T08:01:48.455Z" agent="5.0 (Windows NT 10.0; Win64; x64) AppleWebKit/537.36 (KHTML, like Gecko) Chrome/93.0.4577.63 Safari/537.36" etag="m_1Sh3B5oMdzAHAkvmC6" version="15.1.4" type="github">
  <diagram id="QJjx0-fPxzvcmYibJWj1" name="Page-1">
    <mxGraphModel dx="1609" dy="468" grid="1" gridSize="10" guides="1" tooltips="1" connect="1" arrows="1" fold="1" page="1" pageScale="1" pageWidth="827" pageHeight="583" math="0" shadow="0">
      <root>
        <mxCell id="0" />
        <mxCell id="1" parent="0" />
        <mxCell id="4f-DMQIj-ya-iA7LCkDa-1" value="" style="shape=cube;whiteSpace=wrap;html=1;boundedLbl=1;backgroundOutline=1;darkOpacity=0.05;darkOpacity2=0.1;size=160;direction=east;flipH=1;strokeColor=#d79b00;rotation=345;fillColor=#F8CECC;" parent="1" vertex="1">
          <mxGeometry x="-163" y="191.13" width="173" height="182" as="geometry" />
        </mxCell>
        <mxCell id="4f-DMQIj-ya-iA7LCkDa-4" value="" style="shape=cube;whiteSpace=wrap;html=1;boundedLbl=1;backgroundOutline=1;darkOpacity=0.05;darkOpacity2=0.1;size=110;direction=east;flipH=1;strokeColor=#d79b00;rotation=345;fillColor=#F8CECC;" parent="1" vertex="1">
          <mxGeometry x="-80" y="233.44" width="120" height="128.56" as="geometry" />
        </mxCell>
        <mxCell id="4f-DMQIj-ya-iA7LCkDa-7" value="" style="shape=cube;whiteSpace=wrap;html=1;boundedLbl=1;backgroundOutline=1;darkOpacity=0.05;darkOpacity2=0.1;size=70;direction=east;flipH=1;strokeColor=#d79b00;rotation=345;fillColor=#F8CECC;" parent="1" vertex="1">
          <mxGeometry x="-10" y="266.88" width="80" height="83.12" as="geometry" />
        </mxCell>
        <mxCell id="4f-DMQIj-ya-iA7LCkDa-11" value="" style="shape=cube;whiteSpace=wrap;html=1;boundedLbl=1;backgroundOutline=1;darkOpacity=0.05;darkOpacity2=0.1;size=46;direction=east;flipH=1;strokeColor=#d79b00;rotation=345;fillColor=#F8CECC;" parent="1" vertex="1">
          <mxGeometry x="50" y="288.29" width="58.82" height="53.71" as="geometry" />
        </mxCell>
        <mxCell id="4f-DMQIj-ya-iA7LCkDa-15" value="" style="shape=cube;whiteSpace=wrap;html=1;boundedLbl=1;backgroundOutline=1;darkOpacity=0.05;darkOpacity2=0.1;size=22;direction=east;flipH=1;fillColor=#f8cecc;strokeColor=#b85450;rotation=345;" parent="1" vertex="1">
          <mxGeometry x="169.69" y="305.44" width="30" height="30" as="geometry" />
        </mxCell>
        <mxCell id="4f-DMQIj-ya-iA7LCkDa-20" value="" style="shape=cube;whiteSpace=wrap;html=1;boundedLbl=1;backgroundOutline=1;darkOpacity=0.05;darkOpacity2=0.1;size=3;direction=east;flipH=1;fillColor=#dae8fc;strokeColor=#6c8ebf;" parent="1" vertex="1">
          <mxGeometry x="210" y="319.13" width="230" height="8" as="geometry" />
        </mxCell>
        <mxCell id="4f-DMQIj-ya-iA7LCkDa-21" value="" style="shape=cube;whiteSpace=wrap;html=1;boundedLbl=1;backgroundOutline=1;darkOpacity=0.05;darkOpacity2=0.1;size=3;direction=east;flipH=1;fillColor=#dae8fc;strokeColor=#6c8ebf;" parent="1" vertex="1">
          <mxGeometry x="470" y="319.13" width="122" height="8" as="geometry" />
        </mxCell>
        <mxCell id="4f-DMQIj-ya-iA7LCkDa-22" value="" style="shape=cube;whiteSpace=wrap;html=1;boundedLbl=1;backgroundOutline=1;darkOpacity=0.05;darkOpacity2=0.1;size=3;direction=east;flipH=1;fillColor=#dae8fc;strokeColor=#6c8ebf;" parent="1" vertex="1">
          <mxGeometry x="624" y="319.13" width="70" height="8" as="geometry" />
        </mxCell>
        <mxCell id="4f-DMQIj-ya-iA7LCkDa-23" value="" style="shape=cube;whiteSpace=wrap;html=1;boundedLbl=1;backgroundOutline=1;darkOpacity=0.05;darkOpacity2=0.1;size=7;direction=east;flipH=1;fillColor=#ffe6cc;strokeColor=#d79b00;" parent="1" vertex="1">
          <mxGeometry x="563" y="396" width="30" height="20" as="geometry" />
        </mxCell>
        <mxCell id="4f-DMQIj-ya-iA7LCkDa-24" value="" style="shape=cube;whiteSpace=wrap;html=1;boundedLbl=1;backgroundOutline=1;darkOpacity=0.05;darkOpacity2=0.1;size=7;direction=east;flipH=1;fillColor=#f8cecc;strokeColor=#b85450;" parent="1" vertex="1">
          <mxGeometry x="563" y="426" width="30" height="20" as="geometry" />
        </mxCell>
        <mxCell id="4f-DMQIj-ya-iA7LCkDa-26" value="" style="shape=cube;whiteSpace=wrap;html=1;boundedLbl=1;backgroundOutline=1;darkOpacity=0.05;darkOpacity2=0.1;size=7;direction=east;flipH=1;fillColor=#dae8fc;strokeColor=#6c8ebf;" parent="1" vertex="1">
          <mxGeometry x="563" y="456" width="30" height="20" as="geometry" />
        </mxCell>
        <mxCell id="4f-DMQIj-ya-iA7LCkDa-27" value="" style="shape=cube;whiteSpace=wrap;html=1;boundedLbl=1;backgroundOutline=1;darkOpacity=0.05;darkOpacity2=0.1;size=3;direction=east;flipH=1;fillColor=#d5e8d4;strokeColor=#82b366;" parent="1" vertex="1">
          <mxGeometry x="720" y="319.13" width="38" height="8" as="geometry" />
        </mxCell>
        <mxCell id="4f-DMQIj-ya-iA7LCkDa-28" value="" style="shape=cube;whiteSpace=wrap;html=1;boundedLbl=1;backgroundOutline=1;darkOpacity=0.05;darkOpacity2=0.1;size=7;direction=east;flipH=1;fillColor=#d5e8d4;strokeColor=#82b366;" parent="1" vertex="1">
          <mxGeometry x="563" y="486" width="30" height="20" as="geometry" />
        </mxCell>
        <mxCell id="4f-DMQIj-ya-iA7LCkDa-38" value="2496 x 2" style="text;html=1;strokeColor=none;fillColor=none;align=center;verticalAlign=middle;whiteSpace=wrap;rounded=0;fontStyle=1" parent="1" vertex="1">
          <mxGeometry x="-262" y="426" width="99" height="30" as="geometry" />
        </mxCell>
        <mxCell id="4f-DMQIj-ya-iA7LCkDa-50" value="convolutional + ReLU" style="text;html=1;strokeColor=none;fillColor=none;align=left;verticalAlign=middle;whiteSpace=wrap;rounded=0;fontStyle=1" parent="1" vertex="1">
          <mxGeometry x="604" y="393.06" width="138" height="23.88" as="geometry" />
        </mxCell>
        <mxCell id="4f-DMQIj-ya-iA7LCkDa-51" value="max pooling" style="text;html=1;strokeColor=none;fillColor=none;align=left;verticalAlign=middle;whiteSpace=wrap;rounded=0;fontStyle=1" parent="1" vertex="1">
          <mxGeometry x="604" y="423.06" width="138" height="23.88" as="geometry" />
        </mxCell>
        <mxCell id="4f-DMQIj-ya-iA7LCkDa-52" value="fully connected + ReLU" style="text;html=1;strokeColor=none;fillColor=none;align=left;verticalAlign=middle;whiteSpace=wrap;rounded=0;fontStyle=1" parent="1" vertex="1">
          <mxGeometry x="604" y="454.12" width="138" height="23.88" as="geometry" />
        </mxCell>
        <mxCell id="4f-DMQIj-ya-iA7LCkDa-53" value="softmax" style="text;html=1;strokeColor=none;fillColor=none;align=left;verticalAlign=middle;whiteSpace=wrap;rounded=0;fontStyle=1" parent="1" vertex="1">
          <mxGeometry x="603" y="482.12" width="138" height="23.88" as="geometry" />
        </mxCell>
        <mxCell id="0hlM5YRZBhclHTop9J4i-5" value="" style="shape=cube;whiteSpace=wrap;html=1;boundedLbl=1;backgroundOutline=1;darkOpacity=0.05;darkOpacity2=0.1;size=30;direction=east;flipH=1;fillColor=#f8cecc;strokeColor=#b85450;rotation=345;" parent="1" vertex="1">
          <mxGeometry x="108.82" y="300.44" width="40" height="40" as="geometry" />
        </mxCell>
        <mxCell id="0hlM5YRZBhclHTop9J4i-14" value="" style="shape=cube;whiteSpace=wrap;html=1;boundedLbl=1;backgroundOutline=1;darkOpacity=0.05;darkOpacity2=0.1;size=268;direction=east;flipH=1;strokeColor=#d79b00;fillColor=#66FF66;aspect=fixed;rotation=-15;" parent="1" vertex="1">
          <mxGeometry x="-320" y="100" width="280.64" height="290" as="geometry" />
        </mxCell>
        <mxCell id="0hlM5YRZBhclHTop9J4i-15" value="" style="shape=cube;whiteSpace=wrap;html=1;boundedLbl=1;backgroundOutline=1;darkOpacity=0.05;darkOpacity2=0.1;size=268;direction=east;flipH=1;strokeColor=#d79b00;aspect=fixed;fillColor=#FFE6CC;rotation=345;" parent="1" vertex="1">
          <mxGeometry x="-264.64" y="100" width="280.64" height="290" as="geometry" />
        </mxCell>
        <mxCell id="0hlM5YRZBhclHTop9J4i-16" value="" style="shape=cube;whiteSpace=wrap;html=1;boundedLbl=1;backgroundOutline=1;darkOpacity=0.05;darkOpacity2=0.1;size=160;direction=east;flipH=1;fillColor=#ffe6cc;strokeColor=#d79b00;rotation=345;" parent="1" vertex="1">
          <mxGeometry x="-140" y="186.56" width="173" height="182" as="geometry" />
        </mxCell>
        <mxCell id="0hlM5YRZBhclHTop9J4i-19" value="" style="shape=cube;whiteSpace=wrap;html=1;boundedLbl=1;backgroundOutline=1;darkOpacity=0.05;darkOpacity2=0.1;size=110;direction=east;flipH=1;fillColor=#ffe6cc;strokeColor=#d79b00;rotation=345;" parent="1" vertex="1">
          <mxGeometry x="-59" y="230.56" width="120" height="128.56" as="geometry" />
        </mxCell>
        <mxCell id="0hlM5YRZBhclHTop9J4i-21" value="" style="shape=cube;whiteSpace=wrap;html=1;boundedLbl=1;backgroundOutline=1;darkOpacity=0.05;darkOpacity2=0.1;size=70;direction=east;flipH=1;fillColor=#ffe6cc;strokeColor=#d79b00;rotation=345;" parent="1" vertex="1">
          <mxGeometry x="9.5" y="266.88" width="80" height="83.12" as="geometry" />
        </mxCell>
        <mxCell id="0hlM5YRZBhclHTop9J4i-23" value="" style="shape=cube;whiteSpace=wrap;html=1;boundedLbl=1;backgroundOutline=1;darkOpacity=0.05;darkOpacity2=0.1;size=46;direction=east;flipH=1;fillColor=#ffe6cc;strokeColor=#d79b00;rotation=345;" parent="1" vertex="1">
          <mxGeometry x="70" y="286.73" width="58.82" height="53.71" as="geometry" />
        </mxCell>
        <mxCell id="0hlM5YRZBhclHTop9J4i-26" value="" style="shape=cube;whiteSpace=wrap;html=1;boundedLbl=1;backgroundOutline=1;darkOpacity=0.05;darkOpacity2=0.1;size=30;direction=east;flipH=1;strokeColor=#b85450;rotation=345;fillColor=#FFE6CC;" parent="1" vertex="1">
          <mxGeometry x="128.82" y="300.44" width="40" height="40" as="geometry" />
        </mxCell>
        <mxCell id="0hlM5YRZBhclHTop9J4i-28" value="1248 x 4" style="text;html=1;strokeColor=none;fillColor=none;align=center;verticalAlign=middle;whiteSpace=wrap;rounded=0;fontStyle=1" parent="1" vertex="1">
          <mxGeometry x="-173.82" y="396" width="99" height="30" as="geometry" />
        </mxCell>
        <mxCell id="0hlM5YRZBhclHTop9J4i-29" value="624 x 8" style="text;html=1;strokeColor=none;fillColor=none;align=center;verticalAlign=middle;whiteSpace=wrap;rounded=0;fontStyle=1" parent="1" vertex="1">
          <mxGeometry x="-99" y="373.13" width="99" height="30" as="geometry" />
        </mxCell>
        <mxCell id="0hlM5YRZBhclHTop9J4i-30" value="312 x 16" style="text;html=1;strokeColor=none;fillColor=none;align=center;verticalAlign=middle;whiteSpace=wrap;rounded=0;fontStyle=1" parent="1" vertex="1">
          <mxGeometry x="-29" y="366" width="99" height="30" as="geometry" />
        </mxCell>
        <mxCell id="0hlM5YRZBhclHTop9J4i-31" value="156 x 32" style="text;html=1;strokeColor=none;fillColor=none;align=center;verticalAlign=middle;whiteSpace=wrap;rounded=0;fontStyle=1" parent="1" vertex="1">
          <mxGeometry x="29.819999999999993" y="350" width="99" height="30" as="geometry" />
        </mxCell>
        <mxCell id="0hlM5YRZBhclHTop9J4i-32" value="78 x 64" style="text;html=1;strokeColor=none;fillColor=none;align=center;verticalAlign=middle;whiteSpace=wrap;rounded=0;fontStyle=1" parent="1" vertex="1">
          <mxGeometry x="79.32" y="343.13" width="99" height="30" as="geometry" />
        </mxCell>
        <mxCell id="0hlM5YRZBhclHTop9J4i-35" value="FFE6CC" style="text;whiteSpace=wrap;html=1;fontSize=1;" parent="1" vertex="1">
          <mxGeometry x="250" y="390" width="30" height="20" as="geometry" />
        </mxCell>
        <mxCell id="0hlM5YRZBhclHTop9J4i-36" value="39 x 64" style="text;html=1;strokeColor=none;fillColor=none;align=center;verticalAlign=middle;whiteSpace=wrap;rounded=0;fontStyle=1" parent="1" vertex="1">
          <mxGeometry x="128.82" y="337.44" width="99" height="30" as="geometry" />
        </mxCell>
        <mxCell id="0hlM5YRZBhclHTop9J4i-39" value="1 x 2496" style="text;html=1;strokeColor=none;fillColor=none;align=center;verticalAlign=middle;whiteSpace=wrap;rounded=0;fontStyle=1" parent="1" vertex="1">
          <mxGeometry x="280" y="335.44" width="99" height="24" as="geometry" />
        </mxCell>
        <mxCell id="0hlM5YRZBhclHTop9J4i-42" value="1 x 156" style="text;html=1;strokeColor=none;fillColor=none;align=center;verticalAlign=middle;whiteSpace=wrap;rounded=0;fontStyle=1" parent="1" vertex="1">
          <mxGeometry x="470" y="335.12" width="99" height="24" as="geometry" />
        </mxCell>
        <mxCell id="0hlM5YRZBhclHTop9J4i-44" value="1 x 18" style="text;html=1;strokeColor=none;fillColor=none;align=center;verticalAlign=middle;whiteSpace=wrap;rounded=0;fontStyle=1" parent="1" vertex="1">
          <mxGeometry x="604" y="335.12" width="99" height="24" as="geometry" />
        </mxCell>
        <mxCell id="0hlM5YRZBhclHTop9J4i-66" value="1 x 6" style="text;html=1;strokeColor=none;fillColor=none;align=center;verticalAlign=middle;whiteSpace=wrap;rounded=0;fontStyle=1" parent="1" vertex="1">
          <mxGeometry x="689.5" y="335.12" width="99" height="24" as="geometry" />
        </mxCell>
        <mxCell id="0hlM5YRZBhclHTop9J4i-67" value="2496 x 1" style="text;html=1;strokeColor=none;fillColor=none;align=center;verticalAlign=middle;whiteSpace=wrap;rounded=0;fontStyle=1" parent="1" vertex="1">
          <mxGeometry x="-330" y="426" width="99" height="30" as="geometry" />
        </mxCell>
        <mxCell id="0hlM5YRZBhclHTop9J4i-68" value="" style="shape=cube;whiteSpace=wrap;html=1;boundedLbl=1;backgroundOutline=1;darkOpacity=0.05;darkOpacity2=0.1;size=7;direction=east;flipH=1;strokeColor=#d79b00;fillColor=#66FF66;" parent="1" vertex="1">
          <mxGeometry x="563" y="367.44" width="30" height="20" as="geometry" />
        </mxCell>
        <mxCell id="0hlM5YRZBhclHTop9J4i-69" value="input" style="text;html=1;strokeColor=none;fillColor=none;align=left;verticalAlign=middle;whiteSpace=wrap;rounded=0;fontStyle=1" parent="1" vertex="1">
          <mxGeometry x="604" y="368.56" width="138" height="23.88" as="geometry" />
        </mxCell>
      </root>
    </mxGraphModel>
  </diagram>
</mxfile>
